<svg width="41" height="42" viewBox="0 0 41 42" fill="none" xmlns="http://www.w3.org/2000/svg">
<path fill-rule="evenodd" clip-rule="evenodd" d="M34.6981 12.6413C37.9397 12.6413 40.5676 10.0135 40.5676 6.77184C40.5676 3.53021 37.9397 0.902344 34.6981 0.902344C31.4565 0.902344 28.8286 3.53021 28.8286 6.77184C28.8286 10.0135 31.4565 12.6413 34.6981 12.6413Z" fill="#8055FA"/>
<path fill-rule="evenodd" clip-rule="evenodd" d="M34.6981 26.7242C37.9397 26.7242 40.5676 24.0967 40.5676 20.8555C40.5676 17.6143 37.9397 14.9868 34.6981 14.9868C31.4565 14.9868 28.8286 17.6143 28.8286 20.8555C28.8286 24.0967 31.4565 26.7242 34.6981 26.7242Z" fill="#7550FB"/>
<path fill-rule="evenodd" clip-rule="evenodd" d="M34.6981 41.3323C37.9397 41.3323 40.5676 38.7044 40.5676 35.4628C40.5676 32.2211 37.9397 29.5933 34.6981 29.5933C31.4565 29.5933 28.8286 32.2211 28.8286 35.4628C28.8286 38.7044 31.4565 41.3323 34.6981 41.3323Z" fill="#6A4AFC"/>
<path fill-rule="evenodd" clip-rule="evenodd" d="M20.0904 26.7237C23.3316 26.7237 25.9591 24.0962 25.9591 20.855C25.9591 17.6138 23.3316 14.9863 20.0904 14.9863C16.8492 14.9863 14.2217 17.6138 14.2217 20.855C14.2217 24.0962 16.8492 26.7237 20.0904 26.7237Z" fill="#6045FD"/>
<path fill-rule="evenodd" clip-rule="evenodd" d="M20.0899 41.3323C23.3311 41.3323 25.9586 38.7044 25.9586 35.4628C25.9586 32.2211 23.3311 29.5933 20.0899 29.5933C16.8487 29.5933 14.2212 32.2211 14.2212 35.4628C14.2212 38.7044 16.8487 41.3323 20.0899 41.3323Z" fill="#553FFE"/>
<path fill-rule="evenodd" clip-rule="evenodd" d="M6.00622 41.3323C9.24785 41.3323 11.8757 38.7044 11.8757 35.4628C11.8757 32.2211 9.24785 29.5933 6.00622 29.5933C2.76458 29.5933 0.136719 32.2211 0.136719 35.4628C0.136719 38.7044 2.76458 41.3323 6.00622 41.3323Z" fill="#4A3AFF"/>
</svg>
