<svg width="305" height="42" viewBox="0 0 305 42" fill="none" xmlns="http://www.w3.org/2000/svg">
<path d="M62.505 34.0273V31.4969C63.951 33.9188 66.6983 34.4611 68.2527 34.4611C72.8798 34.4611 76.8201 30.5208 76.8201 24.737C76.8201 19.2062 73.2774 14.9767 68.072 14.9767C66.3007 14.9767 64.2763 15.5913 63.0111 17.5072V8.18073H56.7212V34.0273H62.505ZM62.8665 24.6647C62.8665 22.062 64.5294 20.4714 66.7345 20.4714C68.795 20.4714 70.494 22.062 70.494 24.6647C70.494 27.2674 68.795 28.9664 66.7345 28.9664C64.5294 28.9664 62.8665 27.3036 62.8665 24.6647Z" fill="#0D0A2C"/>
<path d="M92.6372 15.1213C92.348 15.0129 91.9504 14.9767 91.4805 14.9767C89.0223 14.9767 87.2149 16.3143 86.2388 18.5916V15.4105H79.9851V34.0273H86.275V27.1951C86.275 23.291 88.0463 20.869 91.2274 20.869C91.8781 20.869 92.348 20.9413 92.6372 21.0859V15.1213Z" fill="#0D0A2C"/>
<path d="M95.0589 34.0273H101.349V15.4105H95.0589V34.0273ZM94.8059 10.2051C94.8059 12.0848 96.2518 13.4585 98.1677 13.4585C100.084 13.4585 101.566 12.0848 101.566 10.2051C101.566 8.32532 100.084 6.95166 98.1677 6.95166C96.2518 6.95166 94.8059 8.32532 94.8059 10.2051Z" fill="#0D0A2C"/>
<path d="M109.981 24.8093L103.583 34.0273H110.56L113.596 29.111L116.633 34.0273H123.61L117.211 24.8093L123.754 15.4105H116.597L113.596 20.5798L110.596 15.4105H103.438L109.981 24.8093Z" fill="#0D0A2C"/>
<path d="M131.001 19.0616H133.387V26.5083C133.387 30.8462 135.845 33.232 139.894 33.232C141.737 33.232 143.147 32.8344 144.123 32.3644V27.0505C143.364 27.5928 142.46 27.7374 141.701 27.7374C140.544 27.7374 139.677 27.0505 139.677 25.46V19.0616H143.617V14.1815H139.677V9.15675H133.568V14.1815H131.001V19.0616Z" fill="#4A3AFF"/>
<path d="M163.46 24.99C163.641 24.4116 163.822 23.291 163.822 22.315C163.822 17.218 160.207 13.7477 154.893 13.7477C149.398 13.7477 145.205 18.0133 145.205 23.5079C145.205 29.0026 149.29 33.232 155.652 33.232C158.797 33.232 161.255 32.4367 163.713 30.2316L160.532 26.2552C159.628 27.1228 158.146 27.9904 156.122 27.9904C153.989 27.9904 151.965 27.0867 151.676 24.99H163.46ZM154.748 18.7362C156.375 18.7362 157.64 19.7484 157.749 21.339V21.3751H151.567C151.676 19.6761 153.122 18.7362 154.748 18.7362Z" fill="#4A3AFF"/>
<path d="M166.913 14.1815V32.7982H173.203V23.0018C173.203 20.6883 174.396 19.2423 176.167 19.2423C178.047 19.2423 179.059 20.3991 179.059 22.568V32.7982H185.349V23.0018C185.349 20.6883 186.615 19.2423 188.314 19.2423C190.193 19.2423 191.205 20.3991 191.205 22.568V32.7982H197.495V21.4474C197.495 16.6396 194.82 13.7477 190.302 13.7477C187.157 13.7477 185.458 15.1575 184.193 16.7842C182.927 14.796 180.903 13.7477 178.156 13.7477C175.951 13.7477 174.179 14.5068 172.914 16.3866V14.1815H166.913Z" fill="#4A3AFF"/>
<path d="M201.756 40.028H208.046V30.9908C209.239 32.7259 211.336 33.232 213.107 33.232C218.312 33.232 221.855 29.0026 221.855 23.4718C221.855 17.6879 217.806 13.7477 213.179 13.7477C211.661 13.7477 209.094 14.2899 207.54 16.7119V14.1815H201.756V40.028ZM207.902 23.5441C207.902 20.9052 209.564 19.2423 211.769 19.2423C213.83 19.2423 215.529 20.9413 215.529 23.5441C215.529 26.1468 213.83 27.7374 211.769 27.7374C209.564 27.7374 207.902 26.1468 207.902 23.5441Z" fill="#4A3AFF"/>
<path d="M224.803 27.2313C224.803 31.1354 227.044 33.232 230.949 33.232C232.214 33.232 233.19 33.0151 233.877 32.6898V27.6289C233.407 27.8097 232.973 27.8458 232.648 27.8458C231.202 27.8458 231.093 26.9421 231.093 26.0745V6.95166H224.803V27.2313Z" fill="#4A3AFF"/>
<path d="M241.653 33.232C244.111 33.232 245.738 32.1475 246.461 30.7377V32.7982H252.281V21.1582C252.281 16.5312 249.1 13.7477 243.714 13.7477C240.063 13.7477 237.062 15.3382 235.472 17.3626L238.761 21.3028C239.737 20.1822 241.256 19.0977 243.388 19.0977C244.943 19.0977 246.28 19.64 246.28 21.1944V21.2305L241.472 22.1704C237.568 23.0018 235.399 24.8816 235.399 27.6289C235.399 30.9185 238.038 33.232 241.653 33.232ZM246.28 25.0262V25.3154C246.28 27.3759 245.123 28.7134 243.135 28.7134C242.015 28.7134 241.4 28.135 241.4 27.2313C241.4 26.3275 242.123 25.8576 243.244 25.6046L246.28 25.0262Z" fill="#4A3AFF"/>
<path d="M254.522 19.0616H256.908V26.5083C256.908 30.8462 259.366 33.232 263.415 33.232C265.258 33.232 266.668 32.8344 267.644 32.3644V27.0505C266.885 27.5928 265.981 27.7374 265.222 27.7374C264.065 27.7374 263.198 27.0505 263.198 25.46V19.0616H267.138V14.1815H263.198V9.15675H257.089V14.1815H254.522V19.0616Z" fill="#4A3AFF"/>
<path d="M286.981 24.99C287.162 24.4116 287.343 23.291 287.343 22.315C287.343 17.218 283.728 13.7477 278.414 13.7477C272.919 13.7477 268.726 18.0133 268.726 23.5079C268.726 29.0026 272.811 33.232 279.173 33.232C282.318 33.232 284.776 32.4367 287.234 30.2316L284.053 26.2552C283.149 27.1228 281.667 27.9904 279.643 27.9904C277.51 27.9904 275.486 27.0867 275.197 24.99H286.981ZM278.269 18.7362C279.896 18.7362 281.161 19.7484 281.27 21.339V21.3751H275.088C275.197 19.6761 276.643 18.7362 278.269 18.7362Z" fill="#4A3AFF"/>
<path d="M296.869 33.232C301.496 33.232 304.605 30.6654 304.605 27.3397C304.605 23.6525 301.749 22.6765 298.821 21.5197C296.182 20.3991 295.061 20.2184 295.061 19.5315C295.061 18.8447 295.893 18.4471 296.869 18.4471C298.604 18.4471 299.58 19.2785 300.195 20.3268L304.099 17.5072C302.942 15.3021 300.231 13.7477 297.05 13.7477C292.856 13.7477 289.35 15.772 289.35 19.4954C289.35 22.4957 291.41 23.9779 295.061 25.2792C297.628 26.1829 298.893 26.5083 298.893 27.4843C298.893 28.1711 298.206 28.5326 296.941 28.5326C295.061 28.5326 293.615 27.3759 292.748 25.8938L288.735 28.9664C290.29 31.7137 293.399 33.232 296.869 33.232Z" fill="#4A3AFF"/>
<path fill-rule="evenodd" clip-rule="evenodd" d="M34.6981 12.6413C37.9397 12.6413 40.5676 10.0135 40.5676 6.77184C40.5676 3.53021 37.9397 0.902344 34.6981 0.902344C31.4565 0.902344 28.8286 3.53021 28.8286 6.77184C28.8286 10.0135 31.4565 12.6413 34.6981 12.6413Z" fill="#8055FA"/>
<path fill-rule="evenodd" clip-rule="evenodd" d="M34.6981 26.7242C37.9397 26.7242 40.5676 24.0967 40.5676 20.8555C40.5676 17.6143 37.9397 14.9868 34.6981 14.9868C31.4565 14.9868 28.8286 17.6143 28.8286 20.8555C28.8286 24.0967 31.4565 26.7242 34.6981 26.7242Z" fill="#7550FB"/>
<path fill-rule="evenodd" clip-rule="evenodd" d="M34.6981 41.3323C37.9397 41.3323 40.5676 38.7044 40.5676 35.4628C40.5676 32.2211 37.9397 29.5933 34.6981 29.5933C31.4565 29.5933 28.8286 32.2211 28.8286 35.4628C28.8286 38.7044 31.4565 41.3323 34.6981 41.3323Z" fill="#6A4AFC"/>
<path fill-rule="evenodd" clip-rule="evenodd" d="M20.0904 26.7237C23.3316 26.7237 25.9591 24.0962 25.9591 20.855C25.9591 17.6138 23.3316 14.9863 20.0904 14.9863C16.8492 14.9863 14.2217 17.6138 14.2217 20.855C14.2217 24.0962 16.8492 26.7237 20.0904 26.7237Z" fill="#6045FD"/>
<path fill-rule="evenodd" clip-rule="evenodd" d="M20.0899 41.3323C23.3311 41.3323 25.9586 38.7044 25.9586 35.4628C25.9586 32.2211 23.3311 29.5933 20.0899 29.5933C16.8487 29.5933 14.2212 32.2211 14.2212 35.4628C14.2212 38.7044 16.8487 41.3323 20.0899 41.3323Z" fill="#553FFE"/>
<path fill-rule="evenodd" clip-rule="evenodd" d="M6.00622 41.3323C9.24785 41.3323 11.8757 38.7044 11.8757 35.4628C11.8757 32.2211 9.24785 29.5933 6.00622 29.5933C2.76458 29.5933 0.136719 32.2211 0.136719 35.4628C0.136719 38.7044 2.76458 41.3323 6.00622 41.3323Z" fill="#4A3AFF"/>
</svg>
